<?xml version="1.0" encoding="utf-8"?>
<!-- Generator: Adobe Illustrator 25.2.0, SVG Export Plug-In . SVG Version: 6.00 Build 0)  -->
<svg version="1.1" id="Camada_1" xmlns="http://www.w3.org/2000/svg" xmlns:xlink="http://www.w3.org/1999/xlink" x="0px" y="0px"
	 viewBox="0 0 1300 400" style="enable-background:new 0 0 1300 400;" xml:space="preserve">
<style type="text/css">
	.st0{fill:url(#SVGID_1_);}
	.st1{fill:url(#XMLID_2_);}
	.st2{fill:url(#XMLID_3_);}
	.st3{fill:#FFFFFF;}
</style>
<linearGradient id="SVGID_1_" gradientUnits="userSpaceOnUse" x1="704.7863" y1="109.1296" x2="918.6195" y2="109.1296">
	<stop  offset="0" style="stop-color:#8F591B"/>
	<stop  offset="0.8474" style="stop-color:#CF8F15"/>
	<stop  offset="1" style="stop-color:#DC9A11"/>
</linearGradient>
<path class="st0" d="M730.7,95.6c-3.7,0-7.1,1.2-10.1,3.6c-3,2.4-4.9,5.5-5.6,9.4l-2.5,14.1h31.9h169.2l5.1-27.1H730.7z"/>
<g id="XMLID_11_">
	
		<linearGradient id="XMLID_2_" gradientUnits="userSpaceOnUse" x1="141.722" y1="95.6261" x2="241.0331" y2="95.6261" gradientTransform="matrix(0.8993 -0.4374 0.4374 0.8993 46.3889 186.2811)">
		<stop  offset="0" style="stop-color:#8F591B"/>
		<stop  offset="1" style="stop-color:#DC9A11"/>
	</linearGradient>
	<polygon id="XMLID_350_" class="st1" points="252.6,59.2 219.7,218.6 302.1,301.3 	"/>
	
		<linearGradient id="XMLID_3_" gradientUnits="userSpaceOnUse" x1="-2.7249" y1="19.1996" x2="241.0331" y2="19.1996" gradientTransform="matrix(0.8993 -0.4374 0.4374 0.8993 46.3889 186.2811)">
		<stop  offset="0" style="stop-color:#8F591B"/>
		<stop  offset="1" style="stop-color:#DC9A11"/>
	</linearGradient>
	<polygon id="XMLID_349_" class="st2" points="252.6,59.2 166.9,197.1 50.2,200.3 	"/>
</g>
<g>
	<path class="st3" d="M574.3,81.6c3.6,0,7.6-2.8,8.8-6.1l7-18.6c1.3-3.4-0.4-5-3.7-3.6l-62.2,25.9c-3.3,1.4-6.1,2.6-6.1,2.6
		c0,0,0.6,0.1,1.5,0c0.9-0.1,6.9-0.1,10.4-0.1L574.3,81.6z"/>
	<path class="st3" d="M424.3,95.6h34.5L386,245c-4,8.7-12.2,13-24.4,13c-14,0-21.7-5-22.9-15L318.1,95.6h34.1l14.1,126.6L424.3,95.6
		z"/>
	<path class="st3" d="M704.9,137.7c0,4.2-0.4,8.3-1.1,12.4c-0.7,4.1-2.2,8.5-4.4,13.1c-2.2,4.6-4.9,8.9-8.1,12.8
		c-3.2,3.9-7.6,7.4-13.1,10.6c-5.5,3.2-11.8,5.6-18.8,7.1l26.4,61.8h-34.7l-23.5-60.1l-17.5-0.2l-10.5,60.3h-30.9l26-147.7
		c0.7-3.7,2.5-6.7,5.3-9c2.8-2.2,6-3.4,9.7-3.4h48.8c14.9,0,26.4,3.8,34.4,11.3C700.9,114.4,704.9,124.7,704.9,137.7z M640.5,169.3
		c11.1,0,19.2-3,24.4-9c5.2-6,7.8-12.6,7.8-19.9c0-11.8-6.4-17.7-19.3-17.7h-30.5l-8.3,46.6H640.5z"/>
	<path class="st3" d="M906.1,255.6l28.2-160h31.8l-28.2,160H906.1z"/>
	<path class="st3" d="M1035.8,258c-20.6,0-36.7-5.6-48.3-16.8c-11.6-11.2-17.4-27.1-17.4-47.7c0-12.4,2.1-24.5,6.4-36.4
		c4.3-11.9,10.2-22.6,17.9-32.3c7.7-9.6,17.6-17.4,29.7-23.3c12.1-5.9,25.4-8.9,39.9-8.9c14.6,0,27.1,3.6,37.4,10.6
		c10.3,7.1,17.3,16.9,21.1,29.5l-26.7,11.4c-6-15.7-17.5-23.5-34.5-23.5c-9.3,0-17.7,2.1-25.4,6.4c-7.7,4.3-13.9,9.8-18.6,16.7
		c-4.7,6.9-8.3,14.3-10.9,22.4c-2.5,8.1-3.8,16.1-3.8,24.2c0,12.4,3.3,22,9.7,28.8s15.6,10.2,27.2,10.2c16.6,0,32.7-7.7,48.4-23.1
		l18.6,19.5c-8.5,9.6-18.9,17.3-31.3,23.3C1063.1,255,1049.9,258,1035.8,258z"/>
	<path class="st3" d="M439.2,255.6c-3.7,0-6.5-1.2-8.2-3.6c-1.7-2.4-1.9-5.5-0.5-9.4l5.1-14.1h31.9h71.3l-9.5,27.1H439.2z"/>
	<path class="st3" d="M501.9,122.9l-14.6,40.4l0,0.1H536l-9.4,27h-67.9c-3.7,0-6.5-1.2-8.2-3.6c-1.3-1.9-1.7-4.3-1.1-7.1l5.9-16.4
		l24.5-67.8h102l-9.8,27.3H501.9z"/>
	<path class="st3" d="M1126,255.6c-3.7,0-6.5-1.2-8.2-3.6c-1.7-2.4-1.9-5.5-0.5-9.4l5.1-14.1h31.9h71.3l-9.5,27.1H1126z"/>
	<path class="st3" d="M1170.3,122.9l-14.6,40.4l0,0.1h48.8l-9.4,27h-67.9c-3.7,0-6.5-1.2-8.2-3.6c-1.3-1.9-1.7-4.3-1.1-7.1l5.9-16.4
		l24.5-67.8h102l-9.8,27.3H1170.3z"/>
	<polygon class="st3" points="734.9,255.6 766.7,255.6 785.9,146 754.1,146 	"/>
	<polygon class="st3" points="813.5,255.6 845.4,255.6 864.6,146 832.7,146 	"/>
	<g id="XMLID_55_">
		<path id="XMLID_102_" class="st3" d="M380.7,311.3c0,0.4,0,0.8-0.1,1.1c0,0.3-0.1,0.6-0.2,0.8c-0.1,0.2-0.2,0.4-0.3,0.5
			c-0.1,0.1-0.3,0.1-0.4,0.1c-0.3,0-0.7-0.2-1.3-0.6c-0.6-0.4-1.5-0.9-2.5-1.4c-1.1-0.5-2.3-1-3.8-1.4c-1.5-0.4-3.2-0.6-5.2-0.6
			c-2.4,0-4.6,0.4-6.5,1.3c-1.9,0.9-3.5,2.1-4.9,3.6c-1.3,1.6-2.3,3.4-3.1,5.5c-0.7,2.1-1.1,4.5-1.1,6.9c0,2.8,0.4,5.3,1.2,7.4
			c0.8,2.2,1.8,4,3.2,5.5c1.4,1.5,3,2.6,4.9,3.4c1.9,0.8,4,1.1,6.3,1.1c1.3,0,2.7-0.2,4.1-0.5c1.4-0.3,2.7-0.8,3.9-1.5v-12.7h-10.1
			c-0.4,0-0.7-0.2-0.9-0.6c-0.2-0.4-0.3-1-0.3-1.8c0-0.4,0-0.8,0.1-1.1c0-0.3,0.1-0.6,0.2-0.7c0.1-0.2,0.2-0.3,0.4-0.4
			c0.1-0.1,0.3-0.1,0.5-0.1h13.9c0.2,0,0.5,0,0.7,0.1c0.2,0.1,0.5,0.2,0.7,0.4c0.2,0.2,0.4,0.4,0.5,0.7c0.1,0.3,0.2,0.7,0.2,1.1
			v16.6c0,0.6-0.1,1.1-0.3,1.5c-0.2,0.4-0.6,0.8-1.3,1.1c-0.7,0.3-1.5,0.7-2.5,1.1c-1,0.4-2.1,0.7-3.2,1c-1.1,0.3-2.2,0.5-3.3,0.6
			c-1.1,0.1-2.2,0.2-3.3,0.2c-3.4,0-6.4-0.5-9-1.6c-2.7-1-4.9-2.5-6.7-4.5c-1.8-1.9-3.2-4.2-4.2-6.9c-1-2.7-1.4-5.7-1.4-9
			c0-3.5,0.5-6.6,1.6-9.4c1-2.8,2.5-5.2,4.4-7.2c1.9-2,4.2-3.5,6.8-4.6c2.7-1.1,5.6-1.6,8.9-1.6c1.7,0,3.2,0.1,4.7,0.4
			c1.5,0.3,2.8,0.6,3.9,1c1.1,0.4,2.1,0.8,2.9,1.3c0.8,0.5,1.3,0.8,1.6,1.1c0.3,0.3,0.5,0.6,0.6,1
			C380.7,310.1,380.7,310.6,380.7,311.3z"/>
		<path id="XMLID_100_" class="st3" d="M419.3,346.6c0,0.4,0,0.8-0.1,1.1c0,0.3-0.1,0.6-0.2,0.8c-0.1,0.2-0.2,0.3-0.4,0.4
			c-0.1,0.1-0.3,0.1-0.5,0.1h-20.9c-0.5,0-1-0.2-1.5-0.5c-0.5-0.3-0.7-1-0.7-1.8v-38.9c0-0.9,0.2-1.5,0.7-1.8
			c0.5-0.3,0.9-0.5,1.5-0.5h20.7c0.2,0,0.3,0,0.5,0.1c0.1,0.1,0.3,0.2,0.4,0.4c0.1,0.2,0.2,0.5,0.2,0.8c0.1,0.3,0.1,0.7,0.1,1.1
			c0,0.4,0,0.8-0.1,1.1c-0.1,0.3-0.1,0.6-0.2,0.7c-0.1,0.2-0.2,0.3-0.4,0.4c-0.1,0.1-0.3,0.1-0.5,0.1h-17.1v13.7h14.6
			c0.2,0,0.3,0.1,0.5,0.2c0.1,0.1,0.3,0.2,0.4,0.4c0.1,0.2,0.2,0.4,0.2,0.7c0,0.3,0.1,0.7,0.1,1.1c0,0.4,0,0.8-0.1,1
			c0,0.3-0.1,0.5-0.2,0.7c-0.1,0.2-0.2,0.3-0.4,0.4c-0.1,0.1-0.3,0.1-0.5,0.1h-14.6v15.6h17.3c0.2,0,0.3,0,0.5,0.1
			c0.1,0.1,0.3,0.2,0.4,0.4c0.1,0.2,0.2,0.4,0.2,0.7C419.3,345.8,419.3,346.2,419.3,346.6z"/>
		<path id="XMLID_97_" class="st3" d="M461.3,348.2c0,0.2,0,0.3-0.1,0.5c-0.1,0.1-0.2,0.2-0.4,0.3c-0.2,0.1-0.5,0.2-0.9,0.2
			c-0.4,0-0.9,0.1-1.6,0.1c-0.6,0-1.1,0-1.4-0.1c-0.4,0-0.7-0.1-0.9-0.2c-0.2-0.1-0.4-0.2-0.5-0.4c-0.1-0.2-0.2-0.4-0.3-0.7l-4-10.3
			c-0.5-1.2-1-2.2-1.5-3.2c-0.5-1-1.1-1.8-1.8-2.5c-0.7-0.7-1.5-1.3-2.5-1.7c-0.9-0.4-2.1-0.6-3.4-0.6H438v18.6
			c0,0.2-0.1,0.3-0.2,0.5c-0.1,0.1-0.3,0.2-0.5,0.3c-0.2,0.1-0.5,0.1-0.9,0.2c-0.4,0.1-0.8,0.1-1.4,0.1c-0.6,0-1,0-1.4-0.1
			c-0.4-0.1-0.7-0.1-0.9-0.2c-0.2-0.1-0.4-0.2-0.5-0.3c-0.1-0.1-0.1-0.3-0.1-0.5v-40.4c0-0.9,0.2-1.5,0.7-1.8
			c0.5-0.3,0.9-0.5,1.5-0.5h9.3c1.1,0,2,0,2.7,0.1c0.7,0.1,1.4,0.1,2,0.2c1.7,0.3,3.2,0.8,4.5,1.4c1.3,0.6,2.4,1.4,3.3,2.4
			c0.9,1,1.5,2.1,2,3.3c0.4,1.2,0.7,2.6,0.7,4.1c0,1.5-0.2,2.8-0.6,3.9c-0.4,1.2-1,2.2-1.7,3.1c-0.7,0.9-1.6,1.7-2.7,2.3
			c-1,0.7-2.2,1.2-3.5,1.7c0.7,0.3,1.4,0.7,2,1.2c0.6,0.5,1.1,1.1,1.6,1.7c0.5,0.7,1,1.4,1.4,2.3c0.4,0.9,0.9,1.9,1.3,3l3.9,9.6
			c0.3,0.8,0.5,1.4,0.6,1.7C461.2,347.7,461.3,348,461.3,348.2z M452.5,317.5c0-1.7-0.4-3.2-1.1-4.3c-0.8-1.2-2-2-3.8-2.5
			c-0.6-0.2-1.2-0.3-1.9-0.3c-0.7-0.1-1.6-0.1-2.8-0.1H438v14.7h5.7c1.5,0,2.9-0.2,4-0.6c1.1-0.4,2-0.9,2.8-1.6
			c0.7-0.7,1.3-1.4,1.6-2.3C452.4,319.5,452.5,318.6,452.5,317.5z"/>
		<path id="XMLID_95_" class="st3" d="M497.4,346.6c0,0.4,0,0.8-0.1,1.1c0,0.3-0.1,0.6-0.2,0.8c-0.1,0.2-0.2,0.3-0.4,0.4
			c-0.1,0.1-0.3,0.1-0.5,0.1h-20.9c-0.5,0-1-0.2-1.5-0.5c-0.5-0.3-0.7-1-0.7-1.8v-38.9c0-0.9,0.2-1.5,0.7-1.8
			c0.5-0.3,0.9-0.5,1.5-0.5H496c0.2,0,0.3,0,0.5,0.1c0.1,0.1,0.3,0.2,0.4,0.4c0.1,0.2,0.2,0.5,0.2,0.8c0.1,0.3,0.1,0.7,0.1,1.1
			c0,0.4,0,0.8-0.1,1.1c-0.1,0.3-0.1,0.6-0.2,0.7c-0.1,0.2-0.2,0.3-0.4,0.4c-0.1,0.1-0.3,0.1-0.5,0.1h-17.1v13.7h14.6
			c0.2,0,0.3,0.1,0.5,0.2c0.1,0.1,0.3,0.2,0.4,0.4c0.1,0.2,0.2,0.4,0.2,0.7c0,0.3,0.1,0.7,0.1,1.1c0,0.4,0,0.8-0.1,1
			c0,0.3-0.1,0.5-0.2,0.7c-0.1,0.2-0.2,0.3-0.4,0.4c-0.1,0.1-0.3,0.1-0.5,0.1h-14.6v15.6h17.3c0.2,0,0.3,0,0.5,0.1
			c0.1,0.1,0.3,0.2,0.4,0.4c0.1,0.2,0.2,0.4,0.2,0.7C497.4,345.8,497.4,346.2,497.4,346.6z"/>
		<path id="XMLID_93_" class="st3" d="M543.3,346.6c0,0.4-0.1,0.8-0.2,1.1c-0.2,0.3-0.3,0.6-0.6,0.8c-0.2,0.2-0.5,0.3-0.8,0.4
			c-0.3,0.1-0.6,0.1-0.9,0.1h-1.9c-0.6,0-1.1-0.1-1.6-0.2c-0.5-0.1-0.9-0.3-1.3-0.7c-0.4-0.3-0.8-0.8-1.2-1.3
			c-0.4-0.6-0.8-1.3-1.3-2.2L520.1,320c-0.7-1.3-1.4-2.6-2.1-4c-0.7-1.4-1.4-2.8-2-4.1H516c0,1.6,0.1,3.3,0.1,5c0,1.7,0,3.4,0,5
			v26.3c0,0.2,0,0.3-0.1,0.5c-0.1,0.1-0.3,0.3-0.5,0.3c-0.2,0.1-0.5,0.1-0.9,0.2c-0.4,0.1-0.8,0.1-1.4,0.1c-0.6,0-1,0-1.4-0.1
			c-0.4-0.1-0.7-0.1-0.9-0.2c-0.2-0.1-0.4-0.2-0.5-0.3c-0.1-0.1-0.1-0.3-0.1-0.5v-40.3c0-0.9,0.3-1.5,0.8-1.9
			c0.5-0.4,1.1-0.6,1.7-0.6h2.9c0.7,0,1.2,0.1,1.7,0.2c0.5,0.1,0.9,0.3,1.2,0.6c0.4,0.3,0.7,0.6,1,1.1c0.3,0.5,0.7,1,1.1,1.7
			l10.2,19.2c0.6,1.2,1.2,2.3,1.8,3.4c0.6,1.1,1.2,2.2,1.7,3.3c0.5,1.1,1.1,2.1,1.6,3.2c0.5,1,1.1,2.1,1.6,3.2h0
			c0-1.8-0.1-3.6-0.1-5.6c0-1.9,0-3.8,0-5.5v-23.7c0-0.2,0-0.3,0.1-0.4c0.1-0.1,0.3-0.3,0.5-0.4c0.2-0.1,0.5-0.2,0.9-0.2
			c0.4,0,0.8-0.1,1.4-0.1c0.5,0,1,0,1.4,0.1c0.4,0,0.7,0.1,0.9,0.2s0.4,0.2,0.5,0.4c0.1,0.1,0.1,0.3,0.1,0.4V346.6z"/>
		<path id="XMLID_91_" class="st3" d="M587.5,342.9c0,0.4,0,0.7,0,0.9c0,0.3-0.1,0.5-0.1,0.7c-0.1,0.2-0.1,0.4-0.2,0.5
			c-0.1,0.2-0.2,0.3-0.5,0.6c-0.2,0.2-0.7,0.6-1.4,1c-0.7,0.5-1.6,0.9-2.7,1.3c-1.1,0.4-2.3,0.8-3.7,1.1c-1.4,0.3-2.9,0.5-4.5,0.5
			c-2.8,0-5.4-0.5-7.7-1.4c-2.3-0.9-4.2-2.3-5.8-4.2c-1.6-1.8-2.8-4.1-3.7-6.8c-0.9-2.7-1.3-5.8-1.3-9.4c0-3.6,0.5-6.8,1.4-9.7
			c0.9-2.8,2.2-5.2,3.9-7.2c1.7-2,3.7-3.5,6.1-4.5c2.3-1,5-1.6,7.8-1.6c1.3,0,2.5,0.1,3.7,0.4c1.2,0.2,2.3,0.5,3.3,0.9
			c1,0.4,1.9,0.8,2.7,1.2c0.8,0.5,1.3,0.9,1.6,1.2c0.3,0.3,0.5,0.5,0.6,0.7c0.1,0.2,0.2,0.3,0.2,0.6c0.1,0.2,0.1,0.5,0.1,0.8
			c0,0.3,0.1,0.6,0.1,1c0,0.4,0,0.8-0.1,1.1c0,0.3-0.1,0.6-0.2,0.8c-0.1,0.2-0.2,0.4-0.3,0.5c-0.1,0.1-0.3,0.2-0.5,0.2
			c-0.3,0-0.8-0.2-1.3-0.7c-0.6-0.4-1.3-0.9-2.2-1.4c-0.9-0.5-2-1-3.3-1.5c-1.3-0.4-2.8-0.7-4.6-0.7c-1.9,0-3.7,0.4-5.3,1.2
			c-1.6,0.8-3,1.9-4.1,3.4c-1.1,1.5-2,3.3-2.6,5.5c-0.6,2.2-0.9,4.7-0.9,7.4c0,2.8,0.3,5.2,0.9,7.3c0.6,2.1,1.5,3.9,2.6,5.3
			c1.1,1.4,2.5,2.5,4.1,3.2c1.6,0.7,3.5,1.1,5.5,1.1c1.7,0,3.3-0.2,4.6-0.6c1.3-0.4,2.4-0.9,3.3-1.4c0.9-0.5,1.7-1,2.3-1.4
			c0.6-0.4,1.1-0.6,1.4-0.6c0.2,0,0.3,0,0.4,0.1c0.1,0.1,0.2,0.2,0.3,0.4c0.1,0.2,0.1,0.5,0.2,0.8
			C587.5,341.9,587.5,342.3,587.5,342.9z"/>
		<path id="XMLID_89_" class="st3" d="M604.4,348.2c0,0.2,0,0.3-0.1,0.5c-0.1,0.1-0.2,0.2-0.5,0.3c-0.2,0.1-0.5,0.1-0.9,0.2
			c-0.4,0.1-0.8,0.1-1.4,0.1c-0.5,0-1,0-1.4-0.1c-0.4-0.1-0.7-0.1-0.9-0.2c-0.2-0.1-0.4-0.2-0.5-0.3c-0.1-0.1-0.1-0.3-0.1-0.5v-41.9
			c0-0.2,0.1-0.3,0.2-0.5c0.1-0.1,0.3-0.2,0.5-0.3c0.2-0.1,0.5-0.1,0.9-0.2c0.4-0.1,0.8-0.1,1.3-0.1c0.6,0,1,0,1.4,0.1
			c0.4,0.1,0.7,0.1,0.9,0.2c0.2,0.1,0.4,0.2,0.5,0.3c0.1,0.1,0.1,0.3,0.1,0.5V348.2z"/>
		<path id="XMLID_86_" class="st3" d="M652.2,347c0.2,0.5,0.3,0.9,0.3,1.2c0,0.3-0.1,0.5-0.3,0.7c-0.2,0.2-0.5,0.3-0.9,0.3
			c-0.4,0-1,0.1-1.7,0.1c-0.7,0-1.3,0-1.7,0c-0.4,0-0.7-0.1-0.9-0.2c-0.2-0.1-0.4-0.2-0.5-0.3c-0.1-0.1-0.2-0.3-0.3-0.5l-3.7-10.6
			h-18.1l-3.6,10.5c-0.1,0.2-0.2,0.4-0.3,0.5c-0.1,0.1-0.3,0.3-0.5,0.4c-0.2,0.1-0.5,0.2-0.9,0.2c-0.4,0-0.9,0.1-1.5,0.1
			c-0.7,0-1.2,0-1.6-0.1c-0.4-0.1-0.7-0.2-0.9-0.3c-0.2-0.2-0.2-0.4-0.2-0.7c0-0.3,0.1-0.7,0.3-1.2l14.6-40.5
			c0.1-0.2,0.2-0.4,0.4-0.6c0.1-0.2,0.4-0.3,0.6-0.4c0.3-0.1,0.6-0.2,1.1-0.2c0.4,0,1-0.1,1.7-0.1c0.7,0,1.3,0,1.8,0.1
			c0.5,0,0.9,0.1,1.1,0.2c0.3,0.1,0.5,0.2,0.7,0.4c0.2,0.2,0.3,0.4,0.4,0.6L652.2,347z M633.4,311.2L633.4,311.2l-7.6,21.8H641
			L633.4,311.2z"/>
		<path id="XMLID_84_" class="st3" d="M710.4,348.2c0,0.2,0,0.3-0.1,0.5c-0.1,0.1-0.3,0.2-0.5,0.3c-0.2,0.1-0.5,0.1-0.9,0.2
			c-0.4,0.1-0.8,0.1-1.4,0.1c-0.5,0-1,0-1.4-0.1c-0.4-0.1-0.7-0.1-0.9-0.2c-0.2-0.1-0.4-0.2-0.5-0.3c-0.1-0.1-0.1-0.3-0.1-0.5v-38
			h-0.1l-15.4,38.2c-0.1,0.2-0.2,0.3-0.3,0.4c-0.1,0.1-0.3,0.2-0.5,0.3c-0.2,0.1-0.5,0.1-0.8,0.2c-0.3,0-0.7,0-1.2,0
			c-0.5,0-0.9,0-1.2-0.1c-0.3,0-0.6-0.1-0.8-0.2c-0.2-0.1-0.4-0.2-0.5-0.3c-0.1-0.1-0.2-0.2-0.3-0.4l-14.7-38.2h0v38
			c0,0.2,0,0.3-0.1,0.5c-0.1,0.1-0.3,0.2-0.5,0.3c-0.2,0.1-0.5,0.1-0.9,0.2c-0.4,0.1-0.8,0.1-1.4,0.1c-0.6,0-1,0-1.4-0.1
			c-0.4-0.1-0.7-0.1-0.9-0.2c-0.2-0.1-0.4-0.2-0.5-0.3c-0.1-0.1-0.1-0.3-0.1-0.5V308c0-0.9,0.2-1.6,0.8-2c0.5-0.4,1.1-0.6,1.7-0.6
			h3.6c0.7,0,1.4,0.1,1.9,0.2c0.5,0.1,1,0.3,1.4,0.6c0.4,0.3,0.8,0.7,1,1.1c0.3,0.4,0.5,1,0.7,1.6l12.5,31.6h0.2l13-31.5
			c0.3-0.7,0.5-1.2,0.8-1.7c0.3-0.5,0.6-0.8,1-1.1c0.4-0.3,0.7-0.5,1.2-0.6c0.4-0.1,0.9-0.2,1.5-0.2h3.7c0.3,0,0.7,0,1,0.1
			c0.3,0.1,0.6,0.3,0.8,0.5c0.2,0.2,0.4,0.5,0.5,0.8c0.1,0.3,0.2,0.7,0.2,1.2V348.2z"/>
		<path id="XMLID_82_" class="st3" d="M749.7,346.6c0,0.4,0,0.8-0.1,1.1c0,0.3-0.1,0.6-0.2,0.8c-0.1,0.2-0.2,0.3-0.4,0.4
			c-0.1,0.1-0.3,0.1-0.5,0.1h-20.9c-0.5,0-1-0.2-1.5-0.5c-0.5-0.3-0.7-1-0.7-1.8v-38.9c0-0.9,0.2-1.5,0.7-1.8
			c0.5-0.3,0.9-0.5,1.5-0.5h20.7c0.2,0,0.3,0,0.5,0.1c0.1,0.1,0.3,0.2,0.4,0.4c0.1,0.2,0.2,0.5,0.2,0.8c0.1,0.3,0.1,0.7,0.1,1.1
			c0,0.4,0,0.8-0.1,1.1c-0.1,0.3-0.1,0.6-0.2,0.7c-0.1,0.2-0.2,0.3-0.4,0.4c-0.1,0.1-0.3,0.1-0.5,0.1h-17.1v13.7h14.6
			c0.2,0,0.3,0.1,0.5,0.2c0.1,0.1,0.3,0.2,0.4,0.4c0.1,0.2,0.2,0.4,0.2,0.7c0,0.3,0.1,0.7,0.1,1.1c0,0.4,0,0.8-0.1,1
			c0,0.3-0.1,0.5-0.2,0.7c-0.1,0.2-0.2,0.3-0.4,0.4c-0.1,0.1-0.3,0.1-0.5,0.1h-14.6v15.6h17.3c0.2,0,0.3,0,0.5,0.1
			c0.1,0.1,0.3,0.2,0.4,0.4c0.1,0.2,0.2,0.4,0.2,0.7C749.7,345.8,749.7,346.2,749.7,346.6z"/>
		<path id="XMLID_80_" class="st3" d="M795.6,346.6c0,0.4-0.1,0.8-0.2,1.1c-0.2,0.3-0.3,0.6-0.6,0.8c-0.2,0.2-0.5,0.3-0.8,0.4
			c-0.3,0.1-0.6,0.1-0.9,0.1h-1.9c-0.6,0-1.1-0.1-1.6-0.2c-0.5-0.1-0.9-0.3-1.3-0.7c-0.4-0.3-0.8-0.8-1.2-1.3
			c-0.4-0.6-0.8-1.3-1.3-2.2L772.4,320c-0.7-1.3-1.4-2.6-2.1-4c-0.7-1.4-1.4-2.8-2-4.1h-0.1c0,1.6,0.1,3.3,0.1,5c0,1.7,0,3.4,0,5
			v26.3c0,0.2,0,0.3-0.1,0.5c-0.1,0.1-0.3,0.3-0.5,0.3c-0.2,0.1-0.5,0.1-0.9,0.2c-0.4,0.1-0.8,0.1-1.4,0.1c-0.6,0-1,0-1.4-0.1
			c-0.4-0.1-0.7-0.1-0.9-0.2c-0.2-0.1-0.4-0.2-0.5-0.3c-0.1-0.1-0.1-0.3-0.1-0.5v-40.3c0-0.9,0.3-1.5,0.8-1.9
			c0.5-0.4,1.1-0.6,1.7-0.6h2.9c0.7,0,1.2,0.1,1.7,0.2c0.5,0.1,0.9,0.3,1.2,0.6c0.4,0.3,0.7,0.6,1,1.1c0.3,0.5,0.7,1,1.1,1.7
			l10.2,19.2c0.6,1.2,1.2,2.3,1.8,3.4c0.6,1.1,1.2,2.2,1.7,3.3c0.5,1.1,1.1,2.1,1.6,3.2c0.5,1,1.1,2.1,1.6,3.2h0
			c0-1.8-0.1-3.6-0.1-5.6c0-1.9,0-3.8,0-5.5v-23.7c0-0.2,0-0.3,0.1-0.4c0.1-0.1,0.3-0.3,0.5-0.4c0.2-0.1,0.5-0.2,0.9-0.2
			c0.4,0,0.8-0.1,1.4-0.1c0.5,0,1,0,1.4,0.1c0.4,0,0.7,0.1,0.9,0.2s0.4,0.2,0.5,0.4c0.1,0.1,0.1,0.3,0.1,0.4V346.6z"/>
		<path id="XMLID_78_" class="st3" d="M838,307.9c0,0.4,0,0.8-0.1,1.1c0,0.3-0.1,0.6-0.2,0.8c-0.1,0.2-0.2,0.3-0.4,0.4
			c-0.1,0.1-0.3,0.1-0.5,0.1h-12.3v37.8c0,0.2,0,0.3-0.1,0.5c-0.1,0.1-0.2,0.2-0.5,0.3c-0.2,0.1-0.5,0.1-0.9,0.2
			c-0.4,0.1-0.8,0.1-1.4,0.1c-0.5,0-1,0-1.4-0.1c-0.4-0.1-0.7-0.1-0.9-0.2c-0.2-0.1-0.4-0.2-0.5-0.3c-0.1-0.1-0.1-0.3-0.1-0.5v-37.8
			h-12.3c-0.2,0-0.3,0-0.5-0.1c-0.1-0.1-0.3-0.2-0.4-0.4c-0.1-0.2-0.2-0.4-0.2-0.8c-0.1-0.3-0.1-0.7-0.1-1.1c0-0.4,0-0.8,0.1-1.1
			c0.1-0.3,0.1-0.6,0.2-0.8c0.1-0.2,0.2-0.3,0.4-0.4c0.1-0.1,0.3-0.1,0.5-0.1h30.4c0.2,0,0.3,0,0.5,0.1c0.1,0.1,0.3,0.2,0.4,0.4
			c0.1,0.2,0.2,0.5,0.2,0.8C838,307.1,838,307.5,838,307.9z"/>
		<path id="XMLID_75_" class="st3" d="M882.3,326.7c0,3.5-0.4,6.7-1.2,9.5c-0.8,2.8-2.1,5.2-3.7,7.2c-1.7,2-3.7,3.5-6.2,4.6
			s-5.4,1.6-8.7,1.6c-3.3,0-6.1-0.5-8.5-1.5c-2.4-1-4.4-2.4-5.9-4.3c-1.6-1.9-2.7-4.2-3.5-6.9c-0.8-2.8-1.1-5.9-1.1-9.5
			c0-3.4,0.4-6.6,1.2-9.4c0.8-2.8,2.1-5.2,3.7-7.2c1.7-2,3.7-3.5,6.2-4.6c2.5-1.1,5.4-1.6,8.7-1.6c3.2,0,6,0.5,8.4,1.4
			c2.4,1,4.4,2.4,6,4.2c1.6,1.9,2.8,4.1,3.5,6.9C882,320,882.3,323.2,882.3,326.7z M876.2,327.1c0-2.5-0.2-4.8-0.7-6.9
			c-0.4-2.1-1.2-4-2.2-5.5c-1-1.6-2.4-2.8-4.1-3.7c-1.7-0.9-3.8-1.3-6.3-1.3c-2.5,0-4.6,0.5-6.3,1.4c-1.7,0.9-3.1,2.2-4.2,3.8
			c-1.1,1.6-1.8,3.4-2.3,5.5c-0.5,2.1-0.7,4.3-0.7,6.6c0,2.6,0.2,4.9,0.6,7.1c0.4,2.2,1.1,4,2.2,5.6c1,1.6,2.4,2.8,4.1,3.6
			c1.7,0.9,3.8,1.3,6.4,1.3c2.5,0,4.7-0.5,6.4-1.4c1.7-0.9,3.1-2.2,4.2-3.8c1.1-1.6,1.8-3.5,2.3-5.6
			C876,331.7,876.2,329.5,876.2,327.1z"/>
		<path id="XMLID_72_" class="st3" d="M947.6,326.6c0,3.8-0.5,7.1-1.4,9.9c-1,2.8-2.4,5.2-4.2,7c-1.9,1.9-4.1,3.2-6.8,4.2
			c-2.7,0.9-5.9,1.4-9.6,1.4h-9.2c-0.5,0-1-0.2-1.5-0.5c-0.5-0.3-0.7-1-0.7-1.8v-38.9c0-0.9,0.2-1.5,0.7-1.8
			c0.5-0.3,0.9-0.5,1.5-0.5h9.9c3.8,0,7,0.5,9.6,1.5c2.6,1,4.8,2.4,6.6,4.2c1.8,1.8,3.1,4.1,4,6.7
			C947.1,320.3,947.6,323.3,947.6,326.6z M941.5,326.8c0-2.4-0.3-4.6-0.9-6.6c-0.6-2-1.5-3.8-2.7-5.3c-1.2-1.5-2.8-2.6-4.7-3.5
			c-1.9-0.8-4.4-1.2-7.4-1.2h-5.9v34h6c2.8,0,5.1-0.3,7-1c1.9-0.7,3.5-1.8,4.8-3.2c1.3-1.4,2.2-3.2,2.9-5.4
			C941.2,332.3,941.5,329.8,941.5,326.8z"/>
		<path id="XMLID_70_" class="st3" d="M984.3,346.6c0,0.4,0,0.8-0.1,1.1c0,0.3-0.1,0.6-0.2,0.8c-0.1,0.2-0.2,0.3-0.4,0.4
			c-0.1,0.1-0.3,0.1-0.5,0.1h-20.9c-0.5,0-1-0.2-1.5-0.5c-0.5-0.3-0.7-1-0.7-1.8v-38.9c0-0.9,0.2-1.5,0.7-1.8
			c0.5-0.3,0.9-0.5,1.5-0.5h20.7c0.2,0,0.3,0,0.5,0.1c0.1,0.1,0.3,0.2,0.4,0.4c0.1,0.2,0.2,0.5,0.2,0.8c0.1,0.3,0.1,0.7,0.1,1.1
			c0,0.4,0,0.8-0.1,1.1c-0.1,0.3-0.1,0.6-0.2,0.7c-0.1,0.2-0.2,0.3-0.4,0.4c-0.1,0.1-0.3,0.1-0.5,0.1h-17.1v13.7h14.6
			c0.2,0,0.3,0.1,0.5,0.2c0.1,0.1,0.3,0.2,0.4,0.4c0.1,0.2,0.2,0.4,0.2,0.7c0,0.3,0.1,0.7,0.1,1.1c0,0.4,0,0.8-0.1,1
			c0,0.3-0.1,0.5-0.2,0.7c-0.1,0.2-0.2,0.3-0.4,0.4c-0.1,0.1-0.3,0.1-0.5,0.1h-14.6v15.6h17.3c0.2,0,0.3,0,0.5,0.1
			c0.1,0.1,0.3,0.2,0.4,0.4c0.1,0.2,0.2,0.4,0.2,0.7C984.3,345.8,984.3,346.2,984.3,346.6z"/>
		<path id="XMLID_67_" class="st3" d="M1045.3,348.2c0,0.2,0,0.3-0.1,0.5c-0.1,0.1-0.2,0.2-0.4,0.3c-0.2,0.1-0.5,0.2-0.9,0.2
			c-0.4,0-0.9,0.1-1.6,0.1c-0.6,0-1.1,0-1.4-0.1c-0.4,0-0.7-0.1-0.9-0.2c-0.2-0.1-0.4-0.2-0.5-0.4c-0.1-0.2-0.2-0.4-0.3-0.7l-4-10.3
			c-0.5-1.2-1-2.2-1.5-3.2c-0.5-1-1.1-1.8-1.8-2.5c-0.7-0.7-1.5-1.3-2.5-1.7c-0.9-0.4-2.1-0.6-3.4-0.6h-3.9v18.6
			c0,0.2-0.1,0.3-0.2,0.5c-0.1,0.1-0.3,0.2-0.5,0.3c-0.2,0.1-0.5,0.1-0.9,0.2c-0.4,0.1-0.8,0.1-1.4,0.1c-0.6,0-1,0-1.4-0.1
			c-0.4-0.1-0.7-0.1-0.9-0.2c-0.2-0.1-0.4-0.2-0.5-0.3c-0.1-0.1-0.1-0.3-0.1-0.5v-40.4c0-0.9,0.2-1.5,0.7-1.8
			c0.5-0.3,0.9-0.5,1.5-0.5h9.3c1.1,0,2,0,2.7,0.1c0.7,0.1,1.4,0.1,2,0.2c1.7,0.3,3.2,0.8,4.5,1.4c1.3,0.6,2.4,1.4,3.3,2.4
			c0.9,1,1.5,2.1,2,3.3c0.4,1.2,0.7,2.6,0.7,4.1c0,1.5-0.2,2.8-0.6,3.9c-0.4,1.2-1,2.2-1.7,3.1c-0.7,0.9-1.6,1.7-2.7,2.3
			c-1,0.7-2.2,1.2-3.5,1.7c0.7,0.3,1.4,0.7,2,1.2c0.6,0.5,1.1,1.1,1.6,1.7c0.5,0.7,1,1.4,1.4,2.3c0.4,0.9,0.9,1.9,1.3,3l3.9,9.6
			c0.3,0.8,0.5,1.4,0.6,1.7C1045.3,347.7,1045.3,348,1045.3,348.2z M1036.6,317.5c0-1.7-0.4-3.2-1.1-4.3c-0.8-1.2-2-2-3.8-2.5
			c-0.6-0.2-1.2-0.3-1.9-0.3c-0.7-0.1-1.6-0.1-2.8-0.1h-4.9v14.7h5.7c1.5,0,2.9-0.2,4-0.6c1.1-0.4,2-0.9,2.8-1.6
			c0.7-0.7,1.3-1.4,1.6-2.3C1036.4,319.5,1036.6,318.6,1036.6,317.5z"/>
		<path id="XMLID_65_" class="st3" d="M1063,348.2c0,0.2,0,0.3-0.1,0.5c-0.1,0.1-0.2,0.2-0.5,0.3c-0.2,0.1-0.5,0.1-0.9,0.2
			c-0.4,0.1-0.8,0.1-1.4,0.1c-0.5,0-1,0-1.4-0.1c-0.4-0.1-0.7-0.1-0.9-0.2c-0.2-0.1-0.4-0.2-0.5-0.3c-0.1-0.1-0.1-0.3-0.1-0.5v-41.9
			c0-0.2,0.1-0.3,0.2-0.5c0.1-0.1,0.3-0.2,0.5-0.3c0.2-0.1,0.5-0.1,0.9-0.2c0.4-0.1,0.8-0.1,1.3-0.1c0.6,0,1,0,1.4,0.1
			c0.4,0.1,0.7,0.1,0.9,0.2c0.2,0.1,0.4,0.2,0.5,0.3c0.1,0.1,0.1,0.3,0.1,0.5V348.2z"/>
		<path id="XMLID_63_" class="st3" d="M1101.5,336.8c0,2-0.4,3.9-1.1,5.5c-0.8,1.6-1.8,3-3.1,4.1c-1.3,1.1-2.9,1.9-4.7,2.5
			c-1.8,0.6-3.8,0.8-5.9,0.8c-1.5,0-2.8-0.1-4.1-0.4c-1.2-0.2-2.4-0.6-3.3-0.9s-1.8-0.7-2.5-1.1c-0.7-0.4-1.1-0.7-1.4-1
			c-0.3-0.3-0.4-0.6-0.6-1c-0.1-0.4-0.2-1-0.2-1.7c0-0.5,0-0.9,0.1-1.2s0.1-0.6,0.2-0.8c0.1-0.2,0.2-0.3,0.3-0.4
			c0.1-0.1,0.3-0.1,0.5-0.1c0.3,0,0.8,0.2,1.3,0.6c0.6,0.4,1.3,0.8,2.2,1.2c0.9,0.4,2,0.9,3.3,1.3c1.3,0.4,2.7,0.6,4.4,0.6
			c1.3,0,2.4-0.2,3.5-0.5c1-0.3,1.9-0.8,2.7-1.4c0.8-0.6,1.3-1.4,1.7-2.3c0.4-0.9,0.6-1.9,0.6-3.1c0-1.2-0.3-2.3-0.8-3.2
			c-0.6-0.9-1.3-1.6-2.2-2.3c-0.9-0.7-2-1.3-3.2-1.8c-1.2-0.6-2.4-1.1-3.6-1.7c-1.2-0.6-2.4-1.2-3.6-1.9c-1.2-0.7-2.2-1.5-3.1-2.5
			c-0.9-0.9-1.7-2-2.2-3.3c-0.6-1.3-0.9-2.8-0.9-4.6c0-1.8,0.3-3.4,1-4.9c0.7-1.4,1.6-2.6,2.8-3.6c1.2-1,2.6-1.7,4.2-2.2
			c1.6-0.5,3.4-0.8,5.3-0.8c1,0,1.9,0.1,2.9,0.2c1,0.2,1.9,0.4,2.8,0.7c0.9,0.3,1.6,0.6,2.3,0.9c0.7,0.3,1.1,0.6,1.3,0.8
			c0.2,0.2,0.4,0.4,0.4,0.5c0.1,0.1,0.1,0.3,0.2,0.5c0,0.2,0.1,0.4,0.1,0.7c0,0.3,0,0.6,0,1c0,0.4,0,0.8-0.1,1.1
			c0,0.3-0.1,0.6-0.2,0.8c-0.1,0.2-0.2,0.4-0.3,0.5c-0.1,0.1-0.3,0.2-0.4,0.2c-0.2,0-0.6-0.2-1.2-0.5c-0.5-0.3-1.2-0.7-1.9-1.1
			c-0.8-0.4-1.7-0.8-2.7-1.1c-1-0.3-2.2-0.5-3.5-0.5c-1.2,0-2.3,0.2-3.2,0.5c-0.9,0.3-1.6,0.8-2.2,1.3c-0.6,0.5-1,1.2-1.3,1.9
			c-0.3,0.7-0.4,1.5-0.4,2.4c0,1.2,0.3,2.3,0.8,3.1c0.6,0.9,1.3,1.7,2.2,2.3c0.9,0.7,2,1.3,3.2,1.9c1.2,0.6,2.4,1.1,3.6,1.7
			c1.2,0.6,2.4,1.2,3.6,1.9c1.2,0.7,2.3,1.5,3.2,2.4c0.9,0.9,1.7,2,2.3,3.3C1101.2,333.6,1101.5,335.1,1101.5,336.8z"/>
		<path id="XMLID_61_" class="st3" d="M1142.4,342.9c0,0.4,0,0.7,0,0.9c0,0.3-0.1,0.5-0.1,0.7c-0.1,0.2-0.1,0.4-0.2,0.5
			c-0.1,0.2-0.2,0.3-0.5,0.6c-0.2,0.2-0.7,0.6-1.4,1c-0.7,0.5-1.6,0.9-2.7,1.3c-1.1,0.4-2.3,0.8-3.7,1.1c-1.4,0.3-2.9,0.5-4.5,0.5
			c-2.8,0-5.4-0.5-7.7-1.4c-2.3-0.9-4.2-2.3-5.8-4.2c-1.6-1.8-2.8-4.1-3.7-6.8c-0.9-2.7-1.3-5.8-1.3-9.4c0-3.6,0.5-6.8,1.4-9.7
			c0.9-2.8,2.2-5.2,3.9-7.2c1.7-2,3.7-3.5,6.1-4.5c2.3-1,5-1.6,7.8-1.6c1.3,0,2.5,0.1,3.7,0.4c1.2,0.2,2.3,0.5,3.3,0.9
			c1,0.4,1.9,0.8,2.7,1.2c0.8,0.5,1.3,0.9,1.6,1.2c0.3,0.3,0.5,0.5,0.6,0.7c0.1,0.2,0.2,0.3,0.2,0.6c0.1,0.2,0.1,0.5,0.1,0.8
			c0,0.3,0.1,0.6,0.1,1c0,0.4,0,0.8-0.1,1.1c0,0.3-0.1,0.6-0.2,0.8c-0.1,0.2-0.2,0.4-0.3,0.5c-0.1,0.1-0.3,0.2-0.5,0.2
			c-0.3,0-0.8-0.2-1.3-0.7c-0.6-0.4-1.3-0.9-2.2-1.4c-0.9-0.5-2-1-3.3-1.5c-1.3-0.4-2.8-0.7-4.6-0.7c-1.9,0-3.7,0.4-5.3,1.2
			c-1.6,0.8-3,1.9-4.1,3.4c-1.1,1.5-2,3.3-2.6,5.5c-0.6,2.2-0.9,4.7-0.9,7.4c0,2.8,0.3,5.2,0.9,7.3c0.6,2.1,1.5,3.9,2.6,5.3
			c1.1,1.4,2.5,2.5,4.1,3.2c1.6,0.7,3.5,1.1,5.5,1.1c1.7,0,3.3-0.2,4.6-0.6c1.3-0.4,2.4-0.9,3.3-1.4c0.9-0.5,1.7-1,2.3-1.4
			c0.6-0.4,1.1-0.6,1.4-0.6c0.2,0,0.3,0,0.4,0.1c0.1,0.1,0.2,0.2,0.3,0.4c0.1,0.2,0.1,0.5,0.2,0.8
			C1142.4,341.9,1142.4,342.3,1142.4,342.9z"/>
		<path id="XMLID_58_" class="st3" d="M1189.5,326.7c0,3.5-0.4,6.7-1.2,9.5c-0.8,2.8-2.1,5.2-3.7,7.2c-1.7,2-3.7,3.5-6.2,4.6
			c-2.5,1.1-5.4,1.6-8.7,1.6c-3.3,0-6.1-0.5-8.5-1.5c-2.4-1-4.4-2.4-5.9-4.3c-1.6-1.9-2.7-4.2-3.5-6.9c-0.8-2.8-1.1-5.9-1.1-9.5
			c0-3.4,0.4-6.6,1.2-9.4c0.8-2.8,2.1-5.2,3.7-7.2c1.7-2,3.7-3.5,6.2-4.6c2.5-1.1,5.4-1.6,8.7-1.6c3.2,0,6,0.5,8.4,1.4
			c2.4,1,4.4,2.4,6,4.2c1.6,1.9,2.8,4.1,3.5,6.9C1189.1,320,1189.5,323.2,1189.5,326.7z M1183.3,327.1c0-2.5-0.2-4.8-0.7-6.9
			c-0.4-2.1-1.2-4-2.2-5.5c-1-1.6-2.4-2.8-4.1-3.7c-1.7-0.9-3.8-1.3-6.3-1.3c-2.5,0-4.6,0.5-6.3,1.4c-1.7,0.9-3.1,2.2-4.2,3.8
			c-1.1,1.6-1.8,3.4-2.3,5.5c-0.5,2.1-0.7,4.3-0.7,6.6c0,2.6,0.2,4.9,0.6,7.1c0.4,2.2,1.1,4,2.2,5.6c1,1.6,2.4,2.8,4.1,3.6
			c1.7,0.9,3.8,1.3,6.4,1.3c2.5,0,4.7-0.5,6.4-1.4c1.7-0.9,3.1-2.2,4.2-3.8c1.1-1.6,1.8-3.5,2.3-5.6
			C1183.1,331.7,1183.3,329.5,1183.3,327.1z"/>
		<path id="XMLID_56_" class="st3" d="M1225.5,336.8c0,2-0.4,3.9-1.1,5.5c-0.8,1.6-1.8,3-3.1,4.1c-1.3,1.1-2.9,1.9-4.7,2.5
			c-1.8,0.6-3.8,0.8-5.9,0.8c-1.5,0-2.8-0.1-4.1-0.4c-1.2-0.2-2.4-0.6-3.3-0.9c-1-0.4-1.8-0.7-2.5-1.1c-0.7-0.4-1.1-0.7-1.4-1
			c-0.3-0.3-0.4-0.6-0.6-1c-0.1-0.4-0.2-1-0.2-1.7c0-0.5,0-0.9,0.1-1.2c0-0.3,0.1-0.6,0.2-0.8c0.1-0.2,0.2-0.3,0.3-0.4
			c0.1-0.1,0.3-0.1,0.5-0.1c0.3,0,0.8,0.2,1.3,0.6c0.6,0.4,1.3,0.8,2.2,1.2c0.9,0.4,2,0.9,3.3,1.3c1.3,0.4,2.7,0.6,4.4,0.6
			c1.3,0,2.4-0.2,3.5-0.5c1-0.3,1.9-0.8,2.7-1.4c0.8-0.6,1.3-1.4,1.7-2.3c0.4-0.9,0.6-1.9,0.6-3.1c0-1.2-0.3-2.3-0.8-3.2
			c-0.6-0.9-1.3-1.6-2.2-2.3c-0.9-0.7-2-1.3-3.2-1.8c-1.2-0.6-2.4-1.1-3.6-1.7c-1.2-0.6-2.4-1.2-3.6-1.9c-1.2-0.7-2.2-1.5-3.1-2.5
			c-0.9-0.9-1.7-2-2.2-3.3c-0.6-1.3-0.9-2.8-0.9-4.6c0-1.8,0.3-3.4,1-4.9c0.7-1.4,1.6-2.6,2.8-3.6c1.2-1,2.6-1.7,4.2-2.2
			c1.6-0.5,3.4-0.8,5.3-0.8c1,0,1.9,0.1,2.9,0.2c1,0.2,1.9,0.4,2.8,0.7c0.9,0.3,1.6,0.6,2.3,0.9c0.7,0.3,1.1,0.6,1.3,0.8
			c0.2,0.2,0.4,0.4,0.4,0.5c0.1,0.1,0.1,0.3,0.2,0.5c0,0.2,0.1,0.4,0.1,0.7c0,0.3,0,0.6,0,1c0,0.4,0,0.8-0.1,1.1
			c0,0.3-0.1,0.6-0.2,0.8c-0.1,0.2-0.2,0.4-0.3,0.5c-0.1,0.1-0.3,0.2-0.4,0.2c-0.2,0-0.6-0.2-1.2-0.5c-0.5-0.3-1.2-0.7-1.9-1.1
			c-0.8-0.4-1.7-0.8-2.7-1.1c-1-0.3-2.2-0.5-3.5-0.5c-1.2,0-2.3,0.2-3.2,0.5c-0.9,0.3-1.6,0.8-2.2,1.3c-0.6,0.5-1,1.2-1.3,1.9
			c-0.3,0.7-0.4,1.5-0.4,2.4c0,1.2,0.3,2.3,0.8,3.1c0.6,0.9,1.3,1.7,2.2,2.3c0.9,0.7,2,1.3,3.2,1.9c1.2,0.6,2.4,1.1,3.6,1.7
			c1.2,0.6,2.5,1.2,3.6,1.9c1.2,0.7,2.3,1.5,3.2,2.4c0.9,0.9,1.7,2,2.3,3.3C1225.3,333.6,1225.5,335.1,1225.5,336.8z"/>
	</g>
</g>
</svg>
